# xmcd
#
# Track frame offsets: 
#        150
#        15310
#        35296
#        59609
#        76714
#        95398
#        106464
#        124573
#        146899
#        163544
#        176432
#        198290
#
# Disc length: 2876 seconds
#
# Revision: 1
# Processed by: cddbd v1.5.2PL0 Copyright (c) Steve Scherf et al.
# Submitted via: ExactAudioCopy v1.0b3
#
DISCID=900b3a0c
DTITLE=Ndidi Onukwulu - The Contradictor
DYEAR=2008
DGENRE=Blues
TTITLE0=SK Final
TTITLE1=The Lady and E
TTITLE2=Forever S2
TTITLE3=Almost JD
TTITLE4=Goodnight JF
TTITLE5=Move Together
TTITLE6=No Everybody
TTITLE7=Her House is Empty KH
TTITLE8=Boogie MB
TTITLE9=Cry All Day
TTITLE10=Rise
TTITLE11=He Needs Me
EXTD=
EXTT0=
EXTT1=
EXTT2=
EXTT3=
EXTT4=
EXTT5=
EXTT6=
EXTT7=
EXTT8=
EXTT9=
EXTT10=
EXTT11=
PLAYORDER=
